<svg fill="none" xmlns="http://www.w3.org/2000/svg" viewBox="0 0 121 49"><g clip-path="url(#a)"><path d="M15.675 10.766C7.147 10.766.04 14.393.04 25.336c0 8.668 4.778 14.127 15.854 14.127 13.037 0 13.873-8.61 13.873-8.61H23.45s-1.355 4.637-7.941 4.637c-5.365 0-9.223-3.633-9.223-8.726h24.141V23.57c0-5.038-3.19-12.803-14.753-12.803Zm-.22 4.084c5.106 0 8.588 3.136 8.588 7.836H6.425c0-4.99 4.544-7.836 9.029-7.836Z" fill="#E53238"/><path d="M30.424.17v33.798c0 1.918-.137 4.612-.137 4.612h6.025s.217-1.935.217-3.703c0 0 2.976 4.669 11.07 4.669 8.524 0 14.314-5.932 14.314-14.432 0-7.907-5.318-14.266-14.3-14.266-8.41 0-11.024 4.553-11.024 4.553V.17h-6.165Zm15.634 14.859c5.788 0 9.469 4.306 9.469 10.085 0 6.197-4.251 10.251-9.428 10.251-6.177 0-9.51-4.835-9.51-10.196 0-4.994 2.99-10.14 9.469-10.14Z" fill="#0064D2"/><path d="M76.886 10.766c-12.83 0-13.652 7.042-13.652 8.167h6.386s.334-4.111 6.826-4.111c4.218 0 7.487 1.935 7.487 5.657v1.324h-7.487c-9.94 0-15.194 2.915-15.194 8.83 0 5.821 4.855 8.989 11.416 8.989 8.942 0 11.822-4.953 11.822-4.953 0 1.97.152 3.911.152 3.911h5.677s-.22-2.406-.22-3.946V21.327c0-8.725-7.021-10.561-13.213-10.561Zm7.047 15.01v1.767c0 2.303-1.418 8.03-9.765 8.03-4.57 0-6.53-2.287-6.53-4.94 0-4.825 6.6-4.856 16.295-4.856Z" fill="#F5AF02"/><path d="M86.66 11.87h7.184l10.31 20.708L114.44 11.87h6.508l-18.737 36.866h-6.826l5.407-10.277L86.66 11.87Z" fill="#86B817"/></g><defs><clipPath id="a"><path fill="#fff" transform="translate(0 .13)" d="M0 0h120.989v48.647H0z"/></clipPath></defs></svg>