<svg fill="none" xmlns="http://www.w3.org/2000/svg" viewBox="0 0 24 24"><path fill-rule="evenodd" clip-rule="evenodd" d="M4.95 2.481a6.4 6.4 0 0 1 6.988 1.393l.003.003.059.06.058-.06.004-.003a6.4 6.4 0 0 1 9.066 0c2.545 2.545 2.601 6.754-.415 9.826l-.006.007-8 8a1 1 0 0 1-1.414 0L3.286 13.7C.27 10.628.327 6.42 2.872 3.873a6.4 6.4 0 0 1 2.079-1.392Zm2.455 1.51a4.4 4.4 0 0 0-3.117 1.295l-.001.001c-1.694 1.694-1.897 4.642.423 7.01L12 19.585l7.29-7.29c2.32-2.367 2.116-5.315.423-7.009l-.002-.001a4.4 4.4 0 0 0-6.233 0l-.767.776a1 1 0 0 1-1.423 0l-.767-.776-.001-.002a4.4 4.4 0 0 0-3.115-1.292Z" fill="#2F294D"/></svg>