<svg fill="none" xmlns="http://www.w3.org/2000/svg" viewBox="0 0 13 22"><path opacity=".7" d="M5.48 21.088h1.56V19.12c3.24-.288 5.016-2.544 5.016-4.872 0-3.384-2.616-4.032-5.016-4.608V4.456c1.152.288 1.824 1.176 1.92 2.136h2.928C11.672 3.88 9.8 2.368 7.04 2.128V.184H5.48v1.968C2.504 2.416.44 4.264.44 6.952c0 3.384 2.64 4.056 5.04 4.656v5.28c-1.344-.24-2.016-1.128-2.112-2.328H.44c0 2.712 2.112 4.32 5.04 4.584v1.944Zm3.816-6.696c0 1.248-.816 2.256-2.256 2.496v-4.872c1.296.408 2.256 1.008 2.256 2.376ZM3.224 6.808c0-1.464.936-2.256 2.256-2.424v4.848C4.184 8.824 3.224 8.2 3.224 6.808Z" fill="#2F294D"/></svg>